<svg width="143" height="18" viewBox="0 0 143 18" fill="none" xmlns="http://www.w3.org/2000/svg">
<path d="M0 17.8465V2.34115C0 1.36887 0.175046 0.767591 0.525139 0.537313C0.875233 0.307037 1.60043 0.191899 2.70072 0.191899H8.40223L12.1157 8.67377L12.1907 9.13433L12.2658 9.09595L12.3408 8.67377L15.8667 0.191899H21.8683C22.9186 0.191899 23.5938 0.345417 23.8938 0.652453C24.2189 0.933903 24.3815 1.53518 24.3815 2.45629V15.5821C24.3815 16.3241 24.294 16.8486 24.1189 17.1556C23.9689 17.4627 23.6938 17.6546 23.2937 17.7313C22.9186 17.8081 22.3684 17.8465 21.6433 17.8465H16.9545V8.2516L16.6919 9.5565L13.241 17.8465H8.85235L5.43894 9.59488L5.17637 8.28998V17.8465H0Z" fill="url(#paint0_linear_4905_3872)"/>
<path d="M26.1096 17.8465L32.4112 3.33902C32.8614 2.31557 33.499 1.5096 34.3243 0.921109C35.1745 0.332623 36.4623 0.0383802 38.1878 0.0383802C39.5882 0.0383802 40.7385 0.31983 41.6387 0.882729C42.5639 1.42004 43.2766 2.23881 43.7768 3.33902L50.0784 17.8465H42.0888L40.4759 14.2388H33.2365L31.7361 17.8465H26.1096ZM34.3993 11.4371H39.088L37.2125 6.90832C37.1875 6.78038 37.1375 6.65245 37.0625 6.52452C37.0125 6.39659 36.9249 6.33262 36.7999 6.33262C36.6499 6.33262 36.5373 6.39659 36.4623 6.52452C36.4123 6.65245 36.3623 6.78038 36.3123 6.90832L34.3993 11.4371Z" fill="url(#paint1_linear_4905_3872)"/>
<path d="M63.0768 18C61.0013 18 59.2258 17.8977 57.7504 17.693C56.275 17.4627 55.0497 17.0277 54.0744 16.3881C53.1242 15.7484 52.424 14.8529 51.9739 13.7015C51.5237 12.5245 51.2987 11.0021 51.2987 9.13433C51.2987 7.08742 51.5863 5.46269 52.1614 4.26013C52.7616 3.03198 53.5868 2.12367 54.6371 1.53518C55.7124 0.921109 56.9627 0.511727 58.3881 0.307037C59.8385 0.102346 61.4139 0 63.1143 0C65.1399 0 66.9278 0.0383798 68.4782 0.115139C70.0287 0.166312 71.1165 0.268657 71.7416 0.422175C72.4918 0.550107 73.0295 0.780384 73.3545 1.11301C73.7046 1.42004 73.9172 1.76546 73.9922 2.14925C74.0672 2.53305 74.1047 2.91684 74.1047 3.30064V5.0661C73.9797 4.86141 73.6046 4.6823 72.9794 4.52879C72.3793 4.37527 71.6541 4.26013 70.8039 4.18337C69.9786 4.10661 69.1284 4.04264 68.2532 3.99147C67.403 3.9403 66.6278 3.91471 65.9276 3.91471C65.2274 3.88913 64.7148 3.87633 64.3897 3.87633C63.0393 3.87633 61.964 4.00426 61.1638 4.26013C60.3636 4.49041 59.7884 4.97655 59.4383 5.71855C59.0883 6.46055 58.9132 7.59915 58.9132 9.13433C58.9132 10.516 59.0758 11.565 59.4008 12.2814C59.7509 12.9979 60.2636 13.484 60.9387 13.7399C61.6389 13.9957 62.5142 14.1237 63.5644 14.1237C64.6397 14.1237 65.4649 14.0469 66.0401 13.8934C66.6403 13.7143 67.0529 13.4456 67.2779 13.0874C67.528 12.7292 67.653 12.2559 67.653 11.6674C67.653 11.4883 67.653 11.3348 67.653 11.2068C67.653 11.0789 67.653 10.9638 67.653 10.8614H61.5389C61.5389 9.83795 61.5889 9.05757 61.6889 8.52026C61.814 7.95736 62.1016 7.56077 62.5517 7.33049C63.0268 7.07463 63.777 6.9467 64.8023 6.9467H74.8174L74.7799 11.629C74.7799 12.7548 74.6299 13.7271 74.3298 14.5458C74.0297 15.339 73.4671 15.9915 72.6419 16.5032C71.8416 17.0149 70.6663 17.3987 69.1159 17.6546C67.5655 17.8849 65.5525 18 63.0768 18Z" fill="url(#paint2_linear_4905_3872)"/>
<path d="M86.4731 13.8934H97.8011C97.8011 14.8145 97.7761 15.5437 97.7261 16.081C97.7011 16.6183 97.5885 17.0149 97.3885 17.2708C97.2134 17.5267 96.9133 17.693 96.4882 17.7697C96.0881 17.8209 95.5005 17.8465 94.7253 17.8465H76.2328V13.855C76.2829 13.8294 76.4829 13.6375 76.833 13.2793C77.2081 12.8955 77.6957 12.4222 78.2959 11.8593C78.9211 11.2964 79.5962 10.6695 80.3214 9.97868C81.0466 9.28785 81.7843 8.59702 82.5345 7.90618C83.2847 7.21535 83.9849 6.57569 84.6351 5.98721C85.2852 5.39872 85.8354 4.91258 86.2855 4.52879C86.3855 4.45203 86.5231 4.38806 86.6981 4.33689C86.8732 4.26013 86.9982 4.19616 87.0732 4.14499H76.758C76.758 3.12154 76.783 2.32836 76.833 1.76546C76.883 1.20256 77.0706 0.805971 77.3957 0.575694C77.7207 0.31983 78.2834 0.191899 79.0836 0.191899H97.426C97.426 0.217485 97.4135 0.447761 97.3885 0.882729C97.3885 1.3177 97.3134 1.85501 97.1634 2.49467C97.0384 3.13433 96.7883 3.81237 96.4132 4.52879C96.0381 5.2452 95.488 5.91045 94.7628 6.52452L87.1107 13.7015L86.4731 13.8934Z" fill="url(#paint3_linear_4905_3872)"/>
<path d="M100.075 17.8465C100.075 15.2878 100.075 12.7292 100.075 10.1706C100.075 7.58635 100.075 5.01493 100.075 2.45629C100.075 1.97015 100.113 1.56077 100.188 1.22815C100.263 0.869936 100.463 0.614073 100.788 0.460555C101.138 0.281451 101.701 0.191899 102.476 0.191899H107.465V17.8465H100.075Z" fill="url(#paint4_linear_4905_3872)"/>
<path d="M111.138 17.8465V2.57143C111.138 1.59915 111.275 0.959489 111.551 0.652453C111.851 0.345417 112.551 0.191899 113.651 0.191899H120.703L127.755 10.209L127.98 11.3987V0.191899H133.344C133.319 0.243071 133.294 0.422175 133.269 0.729212C133.244 1.03625 133.231 1.38166 133.231 1.76546C133.231 2.12367 133.231 2.4435 133.231 2.72495V15.8507C133.231 16.7463 133.019 17.3092 132.594 17.5394C132.169 17.7441 131.418 17.8465 130.343 17.8465H123.929L116.614 7.52239L116.389 6.29424V17.8465H111.138Z" fill="url(#paint5_linear_4905_3872)"/>
<path d="M136.586 15.8124C136.586 14.8657 136.911 14.2772 137.561 14.0469C138.211 13.791 138.999 13.6631 139.924 13.6631C140.874 13.6631 141.625 13.791 142.175 14.0469C142.725 14.3028 143 14.8913 143 15.8124C143 16.5032 142.862 17.0021 142.587 17.3092C142.337 17.5906 141.975 17.7697 141.5 17.8465C141.024 17.9232 140.462 17.9616 139.812 17.9616C139.186 17.9616 138.624 17.9232 138.124 17.8465C137.649 17.7697 137.273 17.5906 136.998 17.3092C136.723 17.0021 136.586 16.5032 136.586 15.8124Z" fill="url(#paint6_linear_4905_3872)"/>
<defs>
<linearGradient id="paint0_linear_4905_3872" x1="0" y1="9" x2="143" y2="9" gradientUnits="userSpaceOnUse">
<stop stop-color="#EE6E47"/>
<stop offset="1" stop-color="#28886A"/>
</linearGradient>
<linearGradient id="paint1_linear_4905_3872" x1="0" y1="9" x2="143" y2="9" gradientUnits="userSpaceOnUse">
<stop stop-color="#EE6E47"/>
<stop offset="1" stop-color="#28886A"/>
</linearGradient>
<linearGradient id="paint2_linear_4905_3872" x1="0" y1="9" x2="143" y2="9" gradientUnits="userSpaceOnUse">
<stop stop-color="#EE6E47"/>
<stop offset="1" stop-color="#28886A"/>
</linearGradient>
<linearGradient id="paint3_linear_4905_3872" x1="0" y1="9" x2="143" y2="9" gradientUnits="userSpaceOnUse">
<stop stop-color="#EE6E47"/>
<stop offset="1" stop-color="#28886A"/>
</linearGradient>
<linearGradient id="paint4_linear_4905_3872" x1="0" y1="9" x2="143" y2="9" gradientUnits="userSpaceOnUse">
<stop stop-color="#EE6E47"/>
<stop offset="1" stop-color="#28886A"/>
</linearGradient>
<linearGradient id="paint5_linear_4905_3872" x1="0" y1="9" x2="143" y2="9" gradientUnits="userSpaceOnUse">
<stop stop-color="#EE6E47"/>
<stop offset="1" stop-color="#28886A"/>
</linearGradient>
<linearGradient id="paint6_linear_4905_3872" x1="0" y1="9" x2="143" y2="9" gradientUnits="userSpaceOnUse">
<stop stop-color="#EE6E47"/>
<stop offset="1" stop-color="#28886A"/>
</linearGradient>
</defs>
</svg>
