<svg width="22" height="16" viewBox="0 0 22 16" fill="none" xmlns="http://www.w3.org/2000/svg">
<path d="M0 15.8635V2.08103C0 1.21677 0.151789 0.682304 0.455366 0.477613C0.758943 0.272923 1.38778 0.170578 2.34188 0.170578H7.28585L10.5059 7.71002L10.571 8.1194L10.636 8.08529L10.7011 7.71002L13.7586 0.170578H18.9627C19.8735 0.170578 20.4589 0.307038 20.7191 0.579959C21.001 0.830137 21.142 1.36461 21.142 2.18337V13.8507C21.142 14.5103 21.0661 14.9765 20.9143 15.2495C20.7842 15.5224 20.5457 15.693 20.1987 15.7612C19.8735 15.8294 19.3964 15.8635 18.7676 15.8635H14.7018V7.33476L14.4741 8.49467L11.4817 15.8635H7.67617L4.71629 8.52879L4.48861 7.36887V15.8635H0Z" fill="url(#paint0_linear_6_2)"/>
<defs>
<linearGradient id="paint0_linear_6_2" x1="0" y1="8.01706" x2="21.142" y2="8.01706" gradientUnits="userSpaceOnUse">
<stop stop-color="#EE6E47"/>
<stop offset="1" stop-color="#28886A"/>
</linearGradient>
</defs>
</svg>
