<svg width="110" height="14" viewBox="0 0 110 14" fill="none" xmlns="http://www.w3.org/2000/svg">
<path d="M0 13.8806V1.8209C0 1.06468 0.134651 0.597015 0.403953 0.41791C0.673256 0.238806 1.2311 0.149254 2.07748 0.149254H6.46326L9.31978 6.74627L9.37749 7.10448L9.4352 7.07463L9.49291 6.74627L12.2052 0.149254H16.8218C17.6297 0.149254 18.1491 0.268657 18.3799 0.507463C18.63 0.726369 18.755 1.19403 18.755 1.91045V12.1194C18.755 12.6965 18.6877 13.1045 18.553 13.3433C18.4376 13.5821 18.226 13.7313 17.9182 13.791C17.6297 13.8507 17.2065 13.8806 16.6487 13.8806H13.0419V6.41791L12.8399 7.43284L10.1854 13.8806H6.8095L4.1838 7.46269L3.98183 6.44776V13.8806H0Z" fill="url(#paint0_linear_4700_8362)"/>
<path d="M20.0843 13.8806L24.9317 2.59702C25.278 1.801 25.7685 1.17413 26.4033 0.716418C27.0573 0.258707 28.0479 0.0298512 29.3752 0.0298512C30.4524 0.0298512 31.3373 0.248757 32.0298 0.686567C32.7415 1.10448 33.2897 1.74129 33.6744 2.59702L38.5219 13.8806H32.376L31.1353 11.0746H25.5665L24.4124 13.8806H20.0843ZM26.461 8.89552H30.0677L28.625 5.37313C28.6058 5.27363 28.5673 5.17413 28.5096 5.07463C28.4711 4.97512 28.4038 4.92537 28.3076 4.92537C28.1922 4.92537 28.1056 4.97512 28.0479 5.07463C28.0095 5.17413 27.971 5.27363 27.9325 5.37313L26.461 8.89552Z" fill="url(#paint1_linear_4700_8362)"/>
<path d="M48.5206 14C46.924 14 45.5583 13.9204 44.4234 13.7612C43.2885 13.5821 42.3459 13.2438 41.5957 12.7463C40.8647 12.2488 40.3261 11.5522 39.9799 10.6567C39.6336 9.74129 39.4605 8.55721 39.4605 7.10448C39.4605 5.51244 39.6817 4.24876 40.1242 3.31343C40.5858 2.35821 41.2206 1.65174 42.0285 1.19403C42.8557 0.716418 43.8175 0.39801 44.9139 0.238806C46.0296 0.0796021 47.2414 0 48.5495 0C50.1076 0 51.483 0.029851 52.6756 0.0895529C53.8682 0.129354 54.705 0.208956 55.1859 0.328358C55.7629 0.427861 56.1765 0.606965 56.4266 0.865672C56.6959 1.10448 56.8594 1.37313 56.9171 1.67164C56.9748 1.97015 57.0036 2.26866 57.0036 2.56716V3.9403C56.9075 3.78109 56.6189 3.64179 56.138 3.52239C55.6764 3.40299 55.1185 3.31343 54.4645 3.25373C53.8297 3.19403 53.1757 3.14428 52.5025 3.10448C51.8484 3.06468 51.2521 3.04478 50.7135 3.04478C50.1749 3.02488 49.7806 3.01493 49.5305 3.01493C48.4918 3.01493 47.6646 3.11443 47.0491 3.31343C46.4335 3.49254 45.9911 3.87065 45.7218 4.44776C45.4525 5.02488 45.3179 5.91045 45.3179 7.10448C45.3179 8.1791 45.4429 8.99502 45.693 9.55224C45.9623 10.1095 46.3566 10.4876 46.876 10.6866C47.4146 10.8856 48.0878 10.9851 48.8957 10.9851C49.7229 10.9851 50.3577 10.9254 50.8001 10.806C51.2617 10.6667 51.5791 10.4577 51.7523 10.1791C51.9446 9.9005 52.0408 9.53234 52.0408 9.07463C52.0408 8.93532 52.0408 8.81592 52.0408 8.71642C52.0408 8.61691 52.0408 8.52736 52.0408 8.44776H47.3376C47.3376 7.65174 47.3761 7.04478 47.453 6.62687C47.5492 6.18905 47.7704 5.8806 48.1167 5.70149C48.4822 5.50249 49.0592 5.40299 49.8479 5.40299H57.5519L57.523 9.04478C57.523 9.9204 57.4076 10.6766 57.1768 11.3134C56.9459 11.9303 56.5131 12.4378 55.8783 12.8358C55.2628 13.2338 54.3587 13.5323 53.1661 13.7313C51.9735 13.9104 50.425 14 48.5206 14Z" fill="url(#paint2_linear_4700_8362)"/>
<path d="M66.5177 10.806H75.2316C75.2316 11.5224 75.2124 12.0896 75.1739 12.5075C75.1547 12.9254 75.0681 13.2338 74.9142 13.4328C74.7796 13.6318 74.5487 13.7612 74.2217 13.8209C73.9139 13.8607 73.4619 13.8806 72.8656 13.8806H58.6406V10.7761C58.6791 10.7562 58.833 10.607 59.1023 10.3284C59.3909 10.0299 59.7659 9.66169 60.2276 9.22388C60.7085 8.78607 61.2279 8.29851 61.7857 7.76119C62.3436 7.22388 62.911 6.68657 63.4881 6.14925C64.0652 5.61194 64.6038 5.11443 65.1039 4.65672C65.604 4.19901 66.0272 3.8209 66.3735 3.52239C66.4504 3.46269 66.5562 3.41294 66.6909 3.37313C66.8255 3.31343 66.9217 3.26368 66.9794 3.22388H59.0446C59.0446 2.42786 59.0638 1.81095 59.1023 1.37313C59.1408 0.935324 59.285 0.626866 59.5351 0.447762C59.7852 0.248757 60.218 0.149254 60.8335 0.149254H74.9431C74.9431 0.169155 74.9334 0.348259 74.9142 0.686567C74.9142 1.02488 74.8565 1.44279 74.7411 1.9403C74.6449 2.43781 74.4525 2.96517 74.164 3.52239C73.8755 4.0796 73.4523 4.59701 72.8944 5.07463L67.0083 10.6567L66.5177 10.806Z" fill="url(#paint3_linear_4700_8362)"/>
<path d="M76.9811 13.8806C76.9811 11.8905 76.9811 9.9005 76.9811 7.91045C76.9811 5.9005 76.9811 3.9005 76.9811 1.91045C76.9811 1.53234 77.0099 1.21393 77.0676 0.955224C77.1254 0.676617 77.2792 0.477612 77.5293 0.35821C77.7986 0.218906 78.2314 0.149254 78.8277 0.149254H82.6653V13.8806H76.9811Z" fill="url(#paint4_linear_4700_8362)"/>
<path d="M85.4907 13.8806V2C85.4907 1.24378 85.5965 0.746269 85.8081 0.507463C86.0389 0.268657 86.5775 0.149254 87.4239 0.149254H92.8484L98.2729 7.9403L98.4461 8.86567V0.149254H102.572C102.553 0.189055 102.534 0.328358 102.514 0.567165C102.495 0.805971 102.486 1.07463 102.486 1.37313C102.486 1.65174 102.486 1.9005 102.486 2.1194V12.3284C102.486 13.0249 102.322 13.4627 101.995 13.6418C101.668 13.801 101.091 13.8806 100.264 13.8806H95.3299L89.7034 5.85075L89.5303 4.89552V13.8806H85.4907Z" fill="url(#paint5_linear_4700_8362)"/>
<path d="M105.066 12.2985C105.066 11.5622 105.316 11.1045 105.816 10.9254C106.316 10.7264 106.922 10.6269 107.634 10.6269C108.365 10.6269 108.942 10.7264 109.365 10.9254C109.788 11.1244 110 11.5821 110 12.2985C110 12.8358 109.894 13.2239 109.683 13.4627C109.49 13.6816 109.211 13.8209 108.846 13.8806C108.48 13.9403 108.048 13.9701 107.547 13.9701C107.067 13.9701 106.634 13.9403 106.249 13.8806C105.884 13.8209 105.595 13.6816 105.383 13.4627C105.172 13.2239 105.066 12.8358 105.066 12.2985Z" fill="url(#paint6_linear_4700_8362)"/>
<defs>
<linearGradient id="paint0_linear_4700_8362" x1="0" y1="7" x2="110" y2="7" gradientUnits="userSpaceOnUse">
<stop stop-color="#EE6E47"/>
<stop offset="1" stop-color="#28886A"/>
</linearGradient>
<linearGradient id="paint1_linear_4700_8362" x1="0" y1="7" x2="110" y2="7" gradientUnits="userSpaceOnUse">
<stop stop-color="#EE6E47"/>
<stop offset="1" stop-color="#28886A"/>
</linearGradient>
<linearGradient id="paint2_linear_4700_8362" x1="0" y1="7" x2="110" y2="7" gradientUnits="userSpaceOnUse">
<stop stop-color="#EE6E47"/>
<stop offset="1" stop-color="#28886A"/>
</linearGradient>
<linearGradient id="paint3_linear_4700_8362" x1="0" y1="7" x2="110" y2="7" gradientUnits="userSpaceOnUse">
<stop stop-color="#EE6E47"/>
<stop offset="1" stop-color="#28886A"/>
</linearGradient>
<linearGradient id="paint4_linear_4700_8362" x1="0" y1="7" x2="110" y2="7" gradientUnits="userSpaceOnUse">
<stop stop-color="#EE6E47"/>
<stop offset="1" stop-color="#28886A"/>
</linearGradient>
<linearGradient id="paint5_linear_4700_8362" x1="0" y1="7" x2="110" y2="7" gradientUnits="userSpaceOnUse">
<stop stop-color="#EE6E47"/>
<stop offset="1" stop-color="#28886A"/>
</linearGradient>
<linearGradient id="paint6_linear_4700_8362" x1="0" y1="7" x2="110" y2="7" gradientUnits="userSpaceOnUse">
<stop stop-color="#EE6E47"/>
<stop offset="1" stop-color="#28886A"/>
</linearGradient>
</defs>
</svg>
